<svg xmlns="http://www.w3.org/2000/svg" xmlns:xlink="http://www.w3.org/1999/xlink" width="800" zoomAndPan="magnify" viewBox="0 0 600 599.999999" height="800" preserveAspectRatio="xMidYMid meet" version="1.2"><defs/><g id="bfc0caa2ef"><g style="fill:#e7a93f;fill-opacity:1;"><g transform="translate(156.794917, 346.210231)"><path style="stroke:none" d="M 13.8125 -70.171875 C 14.75 -70.171875 15.734375 -69.921875 16.765625 -69.421875 C 17.796875 -68.921875 18.582031 -68.269531 19.125 -67.46875 L 43.4375 -30.03125 L 38.4375 -30.234375 L 63.359375 -67.46875 C 64.628906 -69.269531 66.265625 -70.171875 68.265625 -70.171875 C 69.867188 -70.171875 71.300781 -69.601562 72.5625 -68.46875 C 73.832031 -67.332031 74.46875 -65.863281 74.46875 -64.0625 L 74.46875 -6.109375 C 74.46875 -4.367188 73.898438 -2.914062 72.765625 -1.75 C 71.628906 -0.582031 70.128906 0 68.265625 0 C 66.398438 0 64.878906 -0.582031 63.703125 -1.75 C 62.535156 -2.914062 61.953125 -4.367188 61.953125 -6.109375 L 61.953125 -53.25 L 65.859375 -52.34375 L 45.4375 -21.21875 C 44.84375 -20.488281 44.09375 -19.851562 43.1875 -19.3125 C 42.289062 -18.78125 41.375 -18.550781 40.4375 -18.625 C 39.570312 -18.550781 38.6875 -18.78125 37.78125 -19.3125 C 36.882812 -19.851562 36.132812 -20.488281 35.53125 -21.21875 L 16.421875 -51.453125 L 19.015625 -56.75 L 19.015625 -6.109375 C 19.015625 -4.367188 18.476562 -2.914062 17.40625 -1.75 C 16.34375 -0.582031 14.945312 0 13.21875 0 C 11.539062 0 10.164062 -0.582031 9.09375 -1.75 C 8.03125 -2.914062 7.5 -4.367188 7.5 -6.109375 L 7.5 -64.0625 C 7.5 -65.726562 8.113281 -67.160156 9.34375 -68.359375 C 10.582031 -69.566406 12.070312 -70.171875 13.8125 -70.171875 Z M 13.8125 -70.171875 "/></g></g><g style="fill:#e7a93f;fill-opacity:1;"><g transform="translate(255.081412, 346.210231)"><path style="stroke:none" d="M 36.4375 -70.0625 C 39.90625 -70.0625 43.15625 -69.0625 46.1875 -67.0625 C 49.226562 -65.0625 51.679688 -62.359375 53.546875 -58.953125 C 55.421875 -55.546875 56.359375 -51.742188 56.359375 -47.546875 C 56.359375 -43.410156 55.421875 -39.640625 53.546875 -36.234375 C 51.679688 -32.828125 49.226562 -30.109375 46.1875 -28.078125 C 43.15625 -26.046875 39.90625 -25.03125 36.4375 -25.03125 L 18.015625 -25.03125 L 19.015625 -26.828125 L 19.015625 -6.109375 C 19.015625 -4.367188 18.476562 -2.914062 17.40625 -1.75 C 16.34375 -0.582031 14.945312 0 13.21875 0 C 11.539062 0 10.164062 -0.582031 9.09375 -1.75 C 8.03125 -2.914062 7.5 -4.367188 7.5 -6.109375 L 7.5 -63.953125 C 7.5 -65.691406 8.082031 -67.144531 9.25 -68.3125 C 10.425781 -69.476562 11.878906 -70.0625 13.609375 -70.0625 Z M 36.4375 -36.4375 C 37.707031 -36.4375 38.941406 -36.96875 40.140625 -38.03125 C 41.335938 -39.101562 42.335938 -40.488281 43.140625 -42.1875 C 43.941406 -43.882812 44.34375 -45.671875 44.34375 -47.546875 C 44.34375 -49.484375 43.941406 -51.285156 43.140625 -52.953125 C 42.335938 -54.617188 41.335938 -55.96875 40.140625 -57 C 38.941406 -58.039062 37.707031 -58.5625 36.4375 -58.5625 L 17.8125 -58.5625 L 19.015625 -60.359375 L 19.015625 -34.828125 L 17.921875 -36.4375 Z M 36.4375 -36.4375 "/></g></g><g style="fill:#e7a93f;fill-opacity:1;"><g transform="translate(331.749479, 346.210231)"><path style="stroke:none" d="M 46.140625 -11.71875 C 47.878906 -11.71875 49.332031 -11.164062 50.5 -10.0625 C 51.664062 -8.957031 52.25 -7.539062 52.25 -5.8125 C 52.25 -4.132812 51.664062 -2.742188 50.5 -1.640625 C 49.332031 -0.546875 47.878906 0 46.140625 0 L 13.609375 0 C 11.878906 0 10.425781 -0.582031 9.25 -1.75 C 8.082031 -2.914062 7.5 -4.367188 7.5 -6.109375 L 7.5 -63.953125 C 7.5 -65.691406 8.097656 -67.144531 9.296875 -68.3125 C 10.503906 -69.476562 12.039062 -70.0625 13.90625 -70.0625 C 15.507812 -70.0625 16.925781 -69.476562 18.15625 -68.3125 C 19.394531 -67.144531 20.015625 -65.691406 20.015625 -63.953125 L 20.015625 -10.015625 L 17.8125 -11.71875 Z M 46.140625 -11.71875 "/></g></g><g style="fill:#e7a93f;fill-opacity:1;"><g transform="translate(404.314036, 346.210231)"><path style="stroke:none" d="M 20.015625 -6.109375 C 20.015625 -4.367188 19.378906 -2.914062 18.109375 -1.75 C 16.847656 -0.582031 15.382812 0 13.71875 0 C 11.84375 0 10.335938 -0.582031 9.203125 -1.75 C 8.066406 -2.914062 7.5 -4.367188 7.5 -6.109375 L 7.5 -63.953125 C 7.5 -65.691406 8.097656 -67.144531 9.296875 -68.3125 C 10.503906 -69.476562 12.039062 -70.0625 13.90625 -70.0625 C 15.507812 -70.0625 16.925781 -69.476562 18.15625 -68.3125 C 19.394531 -67.144531 20.015625 -65.691406 20.015625 -63.953125 Z M 20.015625 -6.109375 "/></g></g><g style="fill:#e7a93f;fill-opacity:1;"><g transform="translate(448.154147, 346.210231)"><path style="stroke:none" d="M 13.8125 0 C 11.945312 0 10.425781 -0.582031 9.25 -1.75 C 8.082031 -2.914062 7.5 -4.367188 7.5 -6.109375 L 7.5 -63.953125 C 7.5 -65.691406 8.082031 -67.144531 9.25 -68.3125 C 10.425781 -69.476562 11.878906 -70.0625 13.609375 -70.0625 L 46.140625 -70.0625 C 47.878906 -70.0625 49.332031 -69.507812 50.5 -68.40625 C 51.664062 -67.3125 52.25 -65.894531 52.25 -64.15625 C 52.25 -62.6875 51.664062 -61.382812 50.5 -60.25 C 49.332031 -59.125 47.878906 -58.5625 46.140625 -58.5625 L 19.125 -58.5625 L 20.015625 -59.75 L 20.015625 -39.640625 L 19.3125 -40.9375 L 41.640625 -40.9375 C 43.367188 -40.9375 44.816406 -40.382812 45.984375 -39.28125 C 47.160156 -38.1875 47.75 -36.769531 47.75 -35.03125 C 47.75 -33.5625 47.160156 -32.257812 45.984375 -31.125 C 44.816406 -29.988281 43.367188 -29.421875 41.640625 -29.421875 L 19.125 -29.421875 L 20.015625 -30.328125 L 20.015625 -6.109375 C 20.015625 -4.367188 19.394531 -2.914062 18.15625 -1.75 C 16.925781 -0.582031 15.476562 0 13.8125 0 Z M 13.8125 0 "/></g></g><g style="fill:#e7a93f;fill-opacity:1;"><g transform="translate(520.718703, 346.210231)"><path style="stroke:none" d="M 20.015625 -6.109375 C 20.015625 -4.367188 19.378906 -2.914062 18.109375 -1.75 C 16.847656 -0.582031 15.382812 0 13.71875 0 C 11.84375 0 10.335938 -0.582031 9.203125 -1.75 C 8.066406 -2.914062 7.5 -4.367188 7.5 -6.109375 L 7.5 -63.953125 C 7.5 -65.691406 8.097656 -67.144531 9.296875 -68.3125 C 10.503906 -69.476562 12.039062 -70.0625 13.90625 -70.0625 C 15.507812 -70.0625 16.925781 -69.476562 18.15625 -68.3125 C 19.394531 -67.144531 20.015625 -65.691406 20.015625 -63.953125 Z M 20.015625 -6.109375 "/></g></g><path style=" stroke:none;fill-rule:evenodd;fill:#e7a93f;fill-opacity:1;" d="M 89.757812 220.449219 C 92.726562 220.640625 94.726562 223.453125 101.257812 234.339844 C 122.09375 269.082031 135.117188 316.816406 136.328125 336.144531 C 136.398438 336.757812 135.117188 326.101562 135.472656 329.054688 L 136.910156 340.941406 C 136.933594 341.808594 137.050781 342.742188 137.050781 343.59375 C 137.050781 344.136719 136.988281 344.625 136.871094 345.0625 C 136.832031 345.277344 136.761719 345.480469 136.667969 345.667969 C 135.394531 347.324219 135.050781 346.890625 127.984375 346.945312 L 126.144531 346.945312 C 124.84375 346.945312 123.796875 345.914062 123.796875 344.636719 L 123.796875 338.492188 C 121.722656 307.132812 109.132812 271.597656 87.902344 237.292969 C 84.730469 232.164062 85.621094 231.464844 77.574219 245.371094 C 71.972656 255.046875 59.816406 280.546875 59.816406 282.617188 C 59.816406 282.71875 61.058594 281.792969 62.574219 280.558594 C 85.695312 261.722656 111.65625 292.742188 111.617188 339.15625 C 111.609375 347.808594 112.316406 347.070312 104.015625 347.070312 C 96.996094 347.070312 96.996094 347.070312 96.988281 337.597656 C 96.96875 307.195312 83.121094 282.171875 71.5625 291.648438 C 62.539062 299.039062 57.097656 315.152344 56.601562 335.917969 C 56.339844 347.070312 56.339844 347.070312 47.691406 347.070312 C 39.042969 347.070312 39.042969 347.070312 39.359375 341.152344 C 41.292969 304.988281 54.855469 266.898438 79.808594 227.554688 C 83.417969 221.867188 83.988281 221.355469 87.480469 220.667969 C 88.335938 220.5 89.070312 220.40625 89.757812 220.449219 Z M 89.757812 220.449219 "/></g></svg>