<svg xmlns="http://www.w3.org/2000/svg" viewBox="7.10 202.71 162.11 162.11">
<rect x="7.10" y="202.71" width="162.11" height="162.11" rx="29.99" fill="#0a0e24"/>
<path d="M 89.757812 220.449219 C 92.726562 220.640625 94.726562 223.453125 101.257812 234.339844 C 122.09375 269.082031 135.117188 316.816406 136.328125 336.144531 C 136.398438 336.757812 135.117188 326.101562 135.472656 329.054688 L 136.910156 340.941406 C 136.933594 341.808594 137.050781 342.742188 137.050781 343.59375 C 137.050781 344.136719 136.988281 344.625 136.871094 345.0625 C 136.832031 345.277344 136.761719 345.480469 136.667969 345.667969 C 135.394531 347.324219 135.050781 346.890625 127.984375 346.945312 L 126.144531 346.945312 C 124.84375 346.945312 123.796875 345.914062 123.796875 344.636719 L 123.796875 338.492188 C 121.722656 307.132812 109.132812 271.597656 87.902344 237.292969 C 84.730469 232.164062 85.621094 231.464844 77.574219 245.371094 C 71.972656 255.046875 59.816406 280.546875 59.816406 282.617188 C 59.816406 282.71875 61.058594 281.792969 62.574219 280.558594 C 85.695312 261.722656 111.65625 292.742188 111.617188 339.15625 C 111.609375 347.808594 112.316406 347.070312 104.015625 347.070312 C 96.996094 347.070312 96.996094 347.070312 96.988281 337.597656 C 96.96875 307.195312 83.121094 282.171875 71.5625 291.648438 C 62.539062 299.039062 57.097656 315.152344 56.601562 335.917969 C 56.339844 347.070312 56.339844 347.070312 47.691406 347.070312 C 39.042969 347.070312 39.042969 347.070312 39.359375 341.152344 C 41.292969 304.988281 54.855469 266.898438 79.808594 227.554688 C 83.417969 221.867188 83.988281 221.355469 87.480469 220.667969 C 88.335938 220.5 89.070312 220.40625 89.757812 220.449219 Z M 89.757812 220.449219 " fill="#e7a93f"/>
</svg>